<svg width="36" height="21" viewBox="0 0 36 21" fill="none" xmlns="http://www.w3.org/2000/svg">
<path d="M7.392 20.112C6.624 20.112 5.888 19.856 5.184 19.344C4.512 18.832 3.952 18.16 3.504 17.328C3.056 16.464 2.8 15.568 2.736 14.64C2 14.736 1.44 14.912 1.056 15.168C0.672002 15.424 0.480002 15.872 0.480002 16.512C0.160002 15.968 2.08616e-06 15.44 2.08616e-06 14.928C2.08616e-06 13.264 0.976002 12.368 2.928 12.24C3.28 10.64 4.048 9.376 5.232 8.448C6.448 7.52 7.872 6.992 9.504 6.864C9.216 6.224 8.528 5.856 7.44 5.76C4.752 5.568 3.408 4.592 3.408 2.832C3.408 2.096 3.696 1.44 4.272 0.864004C4.88 0.288003 5.536 3.33786e-06 6.24 3.33786e-06C6.848 3.33786e-06 7.36 0.128004 7.776 0.384004H7.44C7.088 0.384004 6.816 0.480004 6.624 0.672003C6.464 0.832004 6.384 1.168 6.384 1.68C6.384 2.448 7.104 3.264 8.544 4.128C9.984 4.992 10.784 5.888 10.944 6.816C11.296 6.848 11.696 6.96 12.144 7.152C12.592 7.312 13.072 7.536 13.584 7.824C14.736 8.464 15.536 8.832 15.984 8.928C14.928 7.776 14.4 6.352 14.4 4.656C14.4 1.68 16.352 0.192004 20.256 0.192004C21.216 0.192004 22.16 0.464004 23.088 1.008C24.048 1.552 24.848 2.256 25.488 3.12L27.072 5.28C28.032 6.56 28.832 7.488 29.472 8.064C30.112 8.64 30.768 8.928 31.44 8.928C32.08 8.928 32.624 8.688 33.072 8.208C33.552 7.696 33.792 7.184 33.792 6.672C33.792 6.032 33.6 5.52 33.216 5.136C32.832 4.72 32.336 4.512 31.728 4.512C31.536 4.512 31.264 4.576 30.912 4.704C30.592 4.8 30.176 4.944 29.664 5.136C28.736 4.72 28.272 4.128 28.272 3.36C28.272 2.24 28.976 1.68 30.384 1.68C31.664 1.68 32.784 2.192 33.744 3.216C34.704 4.208 35.184 5.648 35.184 7.536V7.728C35.184 9.008 34.864 10.304 34.224 11.616C33.584 12.928 32.72 14.16 31.632 15.312C30.544 16.432 29.312 17.36 27.936 18.096C25.888 19.184 23.712 19.728 21.408 19.728C20.096 19.728 18.8 19.52 17.52 19.104C16.272 18.688 15.232 18.08 14.4 17.28C13.6 16.448 13.2 15.456 13.2 14.304C13.2 13.312 13.408 12.48 13.824 11.808C14.24 11.136 14.944 10.624 15.936 10.272C15.616 10.176 15.248 10.048 14.832 9.888C14.416 9.696 13.968 9.456 13.488 9.168C12.56 8.592 11.76 8.208 11.088 8.016C11.088 9.68 10.544 11.056 9.456 12.144C8.368 13.232 6.864 13.92 4.944 14.208C5.136 15.872 5.712 16.704 6.672 16.704C7.12 16.704 7.44 16.512 7.632 16.128C7.824 15.744 8.208 15.552 8.784 15.552C9.232 15.552 9.584 15.744 9.84 16.128C10.128 16.48 10.272 16.912 10.272 17.424C10.272 17.968 10.016 18.56 9.504 19.2C8.992 19.808 8.288 20.112 7.392 20.112ZM4.848 12.24C6.48 12.176 7.728 11.808 8.592 11.136C9.488 10.464 9.936 9.504 9.936 8.256V7.92C8.528 8.048 7.376 8.496 6.48 9.264C5.616 10.032 5.072 11.024 4.848 12.24Z" fill="url(#paint0_linear_8_3)"/>
<defs>
<linearGradient id="paint0_linear_8_3" x1="18.052" y1="-25.12" x2="18.052" y2="32.88" gradientUnits="userSpaceOnUse">
<stop stop-color="#644401"/>
<stop offset="1" stop-color="#B58512"/>
</linearGradient>
</defs>
</svg>
